<?xml version="1.0" standalone="no"?>
<!DOCTYPE svg PUBLIC "-//W3C//DTD SVG 20010904//EN"
 "http://www.w3.org/TR/2001/REC-SVG-20010904/DTD/svg10.dtd">
<svg version="1.0" xmlns="http://www.w3.org/2000/svg"
 width="300.000000pt" height="200.000000pt" viewBox="0 0 300.000000 200.000000"
 preserveAspectRatio="xMidYMid meet">
<metadata>
Created by potrace 1.10, written by Peter Selinger 2001-2011
</metadata>
<g transform="translate(0.000000,200.000000) scale(0.100000,-0.100000)"
fill="#000000" stroke="none">
<path d="M1072 1477 c-12 -13 -22 -27 -22 -33 0 -5 41 -91 92 -191 l92 -182
-17 -38 c-26 -63 -137 -354 -160 -420 l-21 -63 24 -25 c23 -24 27 -25 156 -25
124 0 135 2 158 23 17 14 48 80 90 188 74 189 88 238 73 264 -7 13 -6 20 4 26
43 24 51 39 129 247 30 79 54 108 77 94 10 -6 -32 -136 -88 -267 -7 -16 -13
-32 -14 -35 -1 -7 -64 -172 -74 -195 -5 -11 -15 -36 -21 -55 -7 -19 -19 -48
-26 -65 -19 -47 -56 -148 -59 -165 -1 -8 7 -25 18 -38 20 -21 26 -22 222 -22
189 0 203 1 223 20 12 12 22 25 22 31 0 5 -41 92 -90 192 l-91 182 35 95 c19
52 58 154 86 225 75 191 79 206 51 234 -19 19 -32 21 -164 21 l-143 0 -26 -27
c-30 -33 -45 -59 -63 -116 -7 -23 -25 -71 -38 -107 -73 -187 -79 -212 -57
-225 16 -10 12 -19 -18 -36 -30 -17 -46 -46 -87 -159 -51 -136 -68 -170 -86
-170 -22 0 -39 -48 222 632 81 210 83 208 -191 208 -192 0 -197 0 -218 -23z
m428 -23 c0 -4 -234 -617 -317 -831 -4 -10 12 -13 58 -13 l64 0 65 175 65 175
42 0 41 0 -55 -142 c-30 -79 -66 -173 -80 -211 l-25 -67 -145 0 c-134 0 -145
1 -138 18 4 9 51 129 104 266 l96 250 -98 193 -98 193 211 0 c115 0 210 -3
210 -6z m427 -6 c-3 -7 -50 -128 -104 -269 l-99 -256 99 -191 99 -192 -211 0
c-116 0 -211 3 -211 6 0 3 69 186 154 407 85 221 158 410 161 420 6 15 0 17
-63 17 l-69 0 -38 -97 c-20 -54 -50 -132 -67 -174 -29 -76 -29 -77 -68 -81
-22 -2 -40 -1 -40 3 0 5 66 179 151 397 8 21 12 22 160 22 117 0 150 -3 146
-12z"/>
<path d="M1256 1278 l56 -111 38 101 c21 56 41 106 45 112 4 7 -28 10 -94 10
l-101 0 56 -112z m69 62 c9 -15 -4 -50 -19 -50 -14 0 -38 45 -29 54 10 10 41
7 48 -4z"/>
<path d="M1680 818 c0 -7 -18 -57 -39 -110 l-39 -98 99 0 99 0 -55 110 c-54
107 -65 123 -65 98z m40 -145 c0 -18 -28 -29 -42 -15 -7 7 -6 17 2 32 9 17 14
19 26 9 8 -6 14 -18 14 -26z"/>
</g>
</svg>
