 <svg  version="1.0" xmlns="http://www.w3.org/2000/svg"  width="300.000000pt" height="77.000000pt" viewBox="0 0 300.000000 77.000000"  preserveAspectRatio="xMidYMid meet">  <g transform="translate(0.000000,77.000000) scale(0.100000,-0.100000)" fill="#ffffff" stroke="none"> <path d="M271 660 c-70 -40 -95 -63 -153 -134 l-69 -86 17 -119 17 -119 62 -74 62 -73 95 -28 c128 -37 145 -36 242 20 67 38 93 61 149 130 l68 84 -17 117 c-19 126 -23 136 -105 225 -40 43 -53 50 -146 77 -56 17 -110 30 -120 29 -10 0 -56 -22 -102 -49z m79 -14 c-4 -20 -10 -38 -12 -39 -2 -1 -20 -17 -41 -36 l-37 -35 -31 30 c-25 23 -29 24 -18 7 8 -13 17 -23 21 -23 21 0 3 -33 -36 -64 -32 -27 -52 -36 -80 -36 l-37 0 61 74 c46 55 80 85 138 119 42 25 78 44 79 43 1 -1 -2 -19 -7 -40z m145 14 c54 -17 102 -34 105 -38 4 -4 28 -32 54 -64 l47 -56 -63 -7 c-37 -4 -73 -2 -88 4 -50 20 -185 108 -184 119 1 7 2 26 3 42 0 17 7 30 14 30 6 0 57 -14 112 -30z m-58 -117 l78 -48 -47 -3 c-27 -2 -48 -7 -48 -12 0 -9 22 -7 85 5 47 9 49 -5 19 -128 l-28 -116 -45 -5 c-25 -3 -82 -8 -125 -12 l-79 -7 7 29 c4 17 3 24 -2 16 -6 -9 -19 14 -41 70 -18 46 -35 88 -38 94 -2 7 17 29 42 50 l46 38 22 -25 c17 -20 27 -24 47 -18 l25 7 -27 1 c-16 1 -33 10 -43 23 -15 22 -14 24 22 55 21 18 41 32 45 33 4 0 42 -21 85 -47z m282 -135 c7 -46 14 -96 17 -113 4 -24 -3 -39 -37 -80 -23 -27 -50 -61 -60 -74 l-19 -24 -31 29 c-30 29 -30 29 -10 45 63 51 83 70 78 75 -3 3 -22 -9 -42 -28 -53 -48 -60 -50 -82 -25 -20 22 -20 22 7 130 14 59 30 104 34 100 5 -5 7 -1 4 7 -4 11 9 18 56 26 34 6 64 12 67 13 4 0 12 -36 18 -81z m-521 -92 l44 -108 -17 -64 -17 -63 -48 57 c-27 31 -44 59 -39 60 5 2 9 8 9 13 0 4 -7 6 -15 3 -8 -4 -15 -2 -15 2 0 5 -7 52 -15 104 -8 52 -15 99 -15 103 0 5 19 7 42 5 l41 -3 45 -109z m327 -126 c11 -16 23 -30 27 -30 4 0 16 -13 27 -29 l21 -29 -76 -46 c-42 -25 -83 -46 -91 -46 -8 0 -59 14 -112 30 l-98 31 17 61 c17 65 31 78 55 58 12 -10 15 -9 15 3 0 16 3 17 160 25 29 2 39 -3 55 -28z"/> <path d="M262 320 c-5 -22 -6 -40 -2 -40 4 0 12 18 18 40 5 22 6 40 2 40 -4 0 -12 -18 -18 -40z"/> <path d="M581 425 c42 -116 54 -145 61 -145 4 0 8 1 8 3 0 11 -54 134 -62 142 -7 7 -9 7 -7 0z"/> <path d="M172 223 c-18 -2 -30 -8 -28 -12 7 -10 76 -1 76 10 0 5 -3 8 -7 7 -5 0 -23 -3 -41 -5z"/> <path d="M383 137 c57 -36 67 -45 62 -65 -3 -12 -1 -22 5 -22 5 0 10 9 10 19 0 10 16 33 35 50 45 39 45 51 1 17 -19 -14 -38 -26 -43 -26 -4 0 -33 16 -63 35 -30 19 -59 35 -65 35 -5 -1 20 -20 58 -43z"/> <path d="M870 512 c-27 -9 -30 -25 -30 -163 0 -149 6 -167 55 -155 23 6 25 11 25 61 l0 55 85 0 85 0 0 -44 c0 -59 8 -76 34 -76 42 0 46 16 46 167 0 125 -2 143 -17 151 -40 21 -63 -5 -63 -70 l0 -48 -85 0 -85 0 0 55 c0 57 -16 79 -50 67z m41 -183 c-30 -24 -41 -11 -34 39 l6 34 26 -27 26 -26 -24 -20z m219 19 l0 -41 -22 19 c-13 10 -25 20 -27 21 -6 4 31 43 41 43 4 0 8 -19 8 -42z"/> <path d="M1342 512 c-7 -2 -44 -67 -82 -144 -57 -113 -68 -143 -60 -159 6 -11 21 -19 36 -19 22 0 31 12 74 102 l48 102 51 -103 c48 -95 54 -102 79 -99 17 2 28 10 31 23 4 25 -128 292 -148 298 -9 2 -22 2 -29 -1z m38 -71 c16 -31 12 -37 -24 -37 l-34 0 14 28 c17 33 29 35 44 9z"/> <path d="M1567 509 c-28 -16 -19 -48 51 -184 93 -181 94 -181 192 10 l75 147 -23 18 c-13 11 -30 16 -39 13 -8 -3 -37 -51 -64 -105 l-48 -99 -48 96 c-50 101 -67 120 -96 104z m173 -230 c0 -15 -27 -47 -33 -38 -2 2 -10 15 -19 30 -16 25 -16 25 18 25 25 0 34 -4 34 -17z"/> <path d="M2628 509 c-31 -18 -20 -51 34 -106 l52 -53 -53 -54 c-39 -40 -52 -59 -49 -77 6 -45 45 -37 104 22 l54 53 53 -52 c52 -52 82 -63 105 -40 22 22 13 41 -45 95 l-58 53 58 57 c61 59 66 76 30 100 -21 14 -26 12 -83 -43 l-60 -57 -59 56 c-33 32 -61 57 -63 57 -2 0 -11 -5 -20 -11z m160 -122 c27 1 31 -1 23 -15 -5 -9 -5 -26 0 -40 9 -22 8 -23 -21 -17 -19 4 -36 2 -46 -6 -20 -17 -28 -5 -13 19 10 16 10 26 1 47 -12 25 -11 27 5 19 10 -4 33 -7 51 -7z"/> <path d="M1948 494 c-41 -22 -48 -43 -48 -144 0 -102 7 -123 50 -145 40 -21 190 -21 230 0 43 22 50 43 50 150 0 93 -1 98 -29 126 -29 28 -32 29 -128 29 -67 -1 -107 -5 -125 -16z m202 -141 l0 -83 -85 0 -85 0 0 83 0 82 85 0 85 0 0 -82z"/> <path d="M2330 488 c-48 -32 -72 -79 -72 -138 0 -62 26 -108 78 -138 34 -19 51 -22 139 -20 96 3 100 4 103 26 6 42 -13 52 -104 52 -73 0 -86 3 -110 23 -37 33 -37 81 0 114 23 20 38 23 105 23 87 0 115 13 109 51 -3 24 -5 24 -109 27 -96 2 -108 1 -139 -20z"/> </g> </svg> 